<svg xmlns="http://www.w3.org/2000/svg" width="54.114" height="55.693" viewBox="0 0 54.114 55.693">
  <g id="Group_4081" data-name="Group 4081" transform="translate(-910.499 -43.073)">
    <path id="Path_1" data-name="Path 1" d="M916.359,67.781c.13-1.538.25-3.078.4-4.614a17.793,17.793,0,0,1,.319-2.508,6.29,6.29,0,0,1,5.55-4.934q11.906-1.618,23.811-3.246a6.411,6.411,0,0,1,7.108,4.5c.618,1.957,1.136,3.946,1.7,5.92a1.616,1.616,0,0,0,.351.7c0-.182.013-.365,0-.545q-.761-9.037-1.529-18.074c-.094-1.1.335-1.738,1.31-1.879.937-.136,1.528.334,1.74,1.4q2.182,10.941,4.376,21.88a5.658,5.658,0,0,0,.7,1.6,34.515,34.515,0,0,1,1.895,3.228,7,7,0,0,1-.031,5.412c-2.169,5.645-4.328,11.294-6.538,16.923a6.134,6.134,0,0,1-5.917,4.185q-13.035.485-26.066,1.039a6.065,6.065,0,0,1-6-3.283q-4.127-7.379-8.15-14.817a7.1,7.1,0,0,1-.167-6.539,9.062,9.062,0,0,0,.74-3.839c.006-6.3.062-12.6.1-18.9a5.581,5.581,0,0,1,.033-.751,1.349,1.349,0,0,1,1.356-1.2c.652,0,1.032.387,1.113,1.214q.813,8.312,1.612,16.625c.016.169.038.339.058.508Zm19.5,21.021c4.31-.244,7.523-.417,10.734-.612a4.649,4.649,0,0,0,4.276-2.921c1.577-3.617,3.146-7.239,4.68-10.875a4.646,4.646,0,0,0-.59-4.858q-3.6-4.746-7.262-9.44a3.894,3.894,0,0,0-2.914-1.616c-2.661-.109-5.259.067-6.822,2.744a1.94,1.94,0,0,1-.261.316,4.43,4.43,0,0,1-6.368.266,4.739,4.739,0,0,0-4.38-1.361c-.335.064-.68.074-1.019.124a4.5,4.5,0,0,0-3.625,2.687q-2.234,4.773-4.462,9.549a4.942,4.942,0,0,0,.289,5.015q2.749,4.416,5.446,8.865a4.911,4.911,0,0,0,4.97,2.568C931.345,89.032,934.15,88.9,935.854,88.8Z" fill="#151515"/>
    <path id="Path_2" data-name="Path 2" d="M1134.233,236.59c-1.1.072-1.466-.206-1.585-1.282q-.336-3.02-.633-6.044c-.111-1.142.184-1.482,1.319-1.6,1.02-.106,2.039-.213,3.06-.3.974-.085,1.4.264,1.514,1.227q.368,3.154.723,6.309c.1.926-.25,1.352-1.2,1.434C1136.367,236.425,1135.3,236.5,1134.233,236.59Z" transform="translate(-191.169 -159.048)" fill="#151515"/>
    <path id="Path_3" data-name="Path 3" d="M1015.086,241.244c-.051-1.24.2-1.529,1.377-1.644.908-.089,1.816-.184,2.725-.261.938-.079,1.314.244,1.388,1.164q.248,3.067.494,6.135c.069.867-.282,1.291-1.126,1.365-1.068.093-2.135.2-3.2.267-.8.051-1.189-.3-1.247-1.106C1015.347,245.163,1015.216,243.161,1015.086,241.244Z" transform="translate(-90.262 -169.387)" fill="#151515"/>
  </g>
</svg>
