<svg xmlns="http://www.w3.org/2000/svg" width="60.358" height="60.36" viewBox="0 0 60.358 60.36">
  <g id="Group_4075" data-name="Group 4075" transform="translate(-559.849 -66.9)">
    <path id="Path_1913" data-name="Path 1913" d="M619.273,102.448c-.654-.134-1.3-.3-1.954-.45a3.269,3.269,0,0,1-1.082-2.556c.378-.6.77-1.2,1.148-1.8a.98.98,0,0,0-.136-1.316q-1.144-1.167-2.312-2.311a1,1,0,0,0-1.368-.124,8.952,8.952,0,0,0-1.1.718,1.706,1.706,0,0,1-1.953.2,2.075,2.075,0,0,1-1.506-1.9c-.328-1.865-.366-1.882-2.26-1.847-.539.01-.635-.145-.634-.652q.028-9.211.007-18.421a4.992,4.992,0,0,0-5.046-5.078c-7.355-.015-14.711-.005-22.066-.007a4.806,4.806,0,0,0-2.464.634,4.957,4.957,0,0,0-2.608,4.554q-.005,10.216,0,20.433c0,.272.109.576-.4.531a4.077,4.077,0,0,1-3.557-4.693,4.25,4.25,0,0,1,1.716-2.677.963.963,0,0,0,.266-1.428,1.01,1.01,0,0,0-1.447-.178,3.571,3.571,0,0,0-.452.339,5.9,5.9,0,0,0-1.872,6.419,5.977,5.977,0,0,0,5.265,4.2c.417.035.5.155.5.543-.02,1.675-.025,3.352,0,5.03.007.422-.123.519-.521.509-.294-.008-.4-.106-.457-.371-.106-.555-.249-1.1-.339-1.659a1.245,1.245,0,0,0-1.033-1.107,7.728,7.728,0,0,1-2.307-.958,1.256,1.256,0,0,0-1.565.066c-.2.15-.422.271-.634.407-1.168.744-1.163.739-2.08-.3-.166-.187-.205-.309-.052-.531.346-.5.644-1.028.986-1.528a1.206,1.206,0,0,0,.035-1.407,7.1,7.1,0,0,1-.657-1.349c-.664-2.124-.272-1.78-2.786-2.329-.523-.114-.714-.277-.687-.832.052-1.049.015-1.05,1.049-1.286.346-.079.691-.171,1.042-.225a1.2,1.2,0,0,0,1.047-1.017,7.761,7.761,0,0,1,.956-2.306,1.267,1.267,0,0,0-.06-1.568c-.15-.2-.276-.418-.412-.63-.714-1.112-.7-1.1.244-2.03a.449.449,0,0,1,.687-.047c.481.333.983.637,1.474.956a1.086,1.086,0,0,0,1.237.057,10.427,10.427,0,0,1,2.652-1.107.973.973,0,0,0,.781-.731c.24-1.06.479-2.122.676-3.191a.967.967,0,0,0-.766-1.128.983.983,0,0,0-1.161.716,5.492,5.492,0,0,0-.254,1.163,1.705,1.705,0,0,1-1.489,1.813,1.5,1.5,0,0,0-.566.26.607.607,0,0,1-.788-.032c-.565-.4-1.158-.753-1.743-1.119a.978.978,0,0,0-1.316.133c-.776.765-1.541,1.539-2.306,2.317a1.007,1.007,0,0,0-.145,1.368c.371.581.75,1.16,1.119,1.743a3.262,3.262,0,0,1-1.049,2.569c-.692.166-1.386.316-2.079.477a.974.974,0,0,0-.823,1.032c-.008,1.069-.005,2.138,0,3.206a1,1,0,0,0,.854,1.074c.694.156,1.383.329,2.08.465a.521.521,0,0,1,.445.368c.242.64.744,1.3.686,1.9s-.669,1.173-1.037,1.756c-.067.108-.133.213-.2.319a1,1,0,0,0,.16,1.365c.755.756,1.509,1.514,2.269,2.265a1,1,0,0,0,1.366.143,9.6,9.6,0,0,0,1.158-.748,1.675,1.675,0,0,1,1.9-.185,2.083,2.083,0,0,1,1.519,1.894c.328,1.884.371,1.9,2.245,1.865.511-.008.654.1.652.635q-.033,9.084-.013,18.169a5.04,5.04,0,0,0,5.349,5.351q5.344,0,10.688,0,5.407,0,10.814,0a5.045,5.045,0,0,0,5.339-5.362q0-6.917,0-13.832,0-3.237,0-6.475c0-.279-.055-.516.393-.482a4.075,4.075,0,0,1,3.573,4.682,4.186,4.186,0,0,1-1.709,2.68.963.963,0,0,0-.329,1.326.988.988,0,0,0,1.247.435,2.883,2.883,0,0,0,.622-.418,6.022,6.022,0,0,0-3.262-10.688c-.423-.035-.553-.121-.544-.561.029-1.655,0-3.31.022-4.966,0-.188-.208-.544.266-.544.336,0,.649-.05.716.439.077.556.25,1.1.341,1.657a1.156,1.156,0,0,0,.968,1.013,7.869,7.869,0,0,1,2.307.953,1.3,1.3,0,0,0,1.622-.052c.2-.151.42-.276.632-.41,1.092-.7,1.077-.684,1.991.227.279.277.245.459.05.738-.334.479-.637.981-.956,1.472a1.088,1.088,0,0,0-.035,1.238,9.755,9.755,0,0,1,1.082,2.593,1.1,1.1,0,0,0,.951.872c.575.109,1.146.239,1.714.38.131.032.366,0,.376.156a6.052,6.052,0,0,1,0,1.559c-.05.262-.492.21-.766.276-.427.1-.852.217-1.284.289a1.165,1.165,0,0,0-1.02.963,8.65,8.65,0,0,1-1.007,2.422,1.158,1.158,0,0,0,.039,1.4c.171.237.316.492.476.738.716,1.109.709,1.1-.259,2.03-.222.212-.371.25-.632.066-.494-.351-1.018-.66-1.528-.988a1.091,1.091,0,0,0-1.238-.047,10.407,10.407,0,0,1-2.652,1.109.97.97,0,0,0-.773.738c-.234,1.04-.467,2.08-.662,3.129a.977.977,0,0,0,.77,1.181,1,1,0,0,0,1.166-.8,6.5,6.5,0,0,0,.25-1.163,1.62,1.62,0,0,1,1.428-1.719,2,2,0,0,0,.679-.316.549.549,0,0,1,.681.037c.57.39,1.159.748,1.739,1.123a1.025,1.025,0,0,0,1.417-.16c.472-.474.941-.954,1.418-1.425,1.516-1.494,1.553-1.443.3-3.21-.5-.713-.755-1.334-.185-2.109a2.28,2.28,0,0,0,.289-.756.549.549,0,0,1,.509-.452c.677-.123,1.344-.306,2.018-.455a1.024,1.024,0,0,0,.874-1.124q-.005-1.54,0-3.08A1.043,1.043,0,0,0,619.273,102.448ZM604.11,121.919a3.041,3.041,0,0,1-3.309,3.327q-10.781,0-21.563,0a3.03,3.03,0,0,1-3.292-3.279q0-12.447,0-24.894,0-12.384,0-24.77a3.051,3.051,0,0,1,3.371-3.388q10.718,0,21.437,0a3.045,3.045,0,0,1,3.356,3.341Q604.113,97.086,604.11,121.919Z" fill="#151515"/>
    <path id="Path_1914" data-name="Path 1914" d="M860.091,116.93a1.106,1.106,0,0,0,1.079-1.08,1.006,1.006,0,1,0-2.009.042A.947.947,0,0,0,860.091,116.93Z" transform="translate(-249.015 -39.864)" fill="#151515"/>
    <path id="Path_1915" data-name="Path 1915" d="M859.162,139.858a.948.948,0,0,0,.949,1.021,1.111,1.111,0,0,0,1.06-1.1,1.006,1.006,0,1,0-2.009.079Z" transform="translate(-249.015 -59.788)" fill="#151515"/>
    <path id="Path_1916" data-name="Path 1916" d="M860.15,164.818a1.117,1.117,0,0,0,1.019-1.077,1.006,1.006,0,1,0-2.009.036A.952.952,0,0,0,860.15,164.818Z" transform="translate(-249.014 -79.704)" fill="#151515"/>
    <path id="Path_1917" data-name="Path 1917" d="M608.779,317.141a1.028,1.028,0,0,0-1.031,1.092.92.92,0,0,0,.947,1.005,1.076,1.076,0,0,0,1.063-1.079A1.026,1.026,0,0,0,608.779,317.141Z" transform="translate(-39.85 -208.189)" fill="#151515"/>
    <path id="Path_1918" data-name="Path 1918" d="M608.774,341.087a1.029,1.029,0,0,0-1.026,1.1.92.92,0,0,0,.952,1,1.076,1.076,0,0,0,1.057-1.085A1.025,1.025,0,0,0,608.774,341.087Z" transform="translate(-39.85 -228.111)" fill="#151515"/>
    <path id="Path_1919" data-name="Path 1919" d="M608.8,365.026a1.026,1.026,0,0,0-1.05,1.073.919.919,0,0,0,.928,1.024,1.071,1.071,0,0,0,1.081-1.059A1.024,1.024,0,0,0,608.8,365.026Z" transform="translate(-39.849 -248.027)" fill="#151515"/>
    <path id="Path_1920" data-name="Path 1920" d="M682.236,221.894c-.252-.244-.271-.383-.008-.637.963-.931,1.9-1.887,2.847-2.833a1.264,1.264,0,0,0,.45-.911.984.984,0,0,0-.57-.857.937.937,0,0,0-1.153.193q-2.009,1.984-3.993,3.993a.96.96,0,0,0-.007,1.455q1.979,2.017,3.993,3.993a.946.946,0,0,0,1.312.109,1,1,0,0,0,.013-1.623C684.169,223.807,683.211,222.842,682.236,221.894Z" transform="translate(-99.522 -124.493)" fill="#151515"/>
    <path id="Path_1921" data-name="Path 1921" d="M765.245,217.019a1.035,1.035,0,0,0-1.548-.161c-.46.435-.417,1.037.131,1.59.882.892,1.754,1.8,2.67,2.655.408.381.434.607.008,1-.949.882-1.845,1.822-2.761,2.741a1.017,1.017,0,0,0,.593,1.79,1.22,1.22,0,0,0,.9-.43c1.242-1.244,2.489-2.482,3.726-3.729a1.044,1.044,0,0,0,.01-1.731Q767.119,218.873,765.245,217.019Z" transform="translate(-169.327 -124.526)" fill="#151515"/>
    <path id="Path_1922" data-name="Path 1922" d="M730.788,216.57a1.015,1.015,0,0,0-1.208.825c-.16.583-.292,1.176-.439,1.763-.508,2.028-1.022,4.053-1.523,6.082a1.013,1.013,0,1,0,1.953.491c.65-2.616,1.311-5.23,1.959-7.846A1.02,1.02,0,0,0,730.788,216.57Z" transform="translate(-139.542 -124.498)" fill="#151515"/>
    <path id="Path_1923" data-name="Path 1923" d="M722.426,90.849q-2.884-.013-5.767,0a1.013,1.013,0,0,0-1.139.983c-.012.613.435,1.017,1.163,1.023.961.008,1.922,0,2.884,0s1.924.01,2.885,0a1.009,1.009,0,1,0-.025-2Z" transform="translate(-129.511 -19.919)" fill="#151515"/>
  </g>
</svg>
