<?xml version="1.0" encoding="utf-8"?>
<!-- Generator: Adobe Illustrator 16.0.0, SVG Export Plug-In . SVG Version: 6.00 Build 0)  -->
<!DOCTYPE svg PUBLIC "-//W3C//DTD SVG 1.1//EN" "http://www.w3.org/Graphics/SVG/1.1/DTD/svg11.dtd">
<svg version="1.1" id="Layer_1" xmlns="http://www.w3.org/2000/svg" xmlns:xlink="http://www.w3.org/1999/xlink" x="0px" y="0px"
	 width="66.25px" height="66.25px" viewBox="0 0 66.25 66.25" enable-background="new 0 0 66.25 66.25" xml:space="preserve">
<path fill-rule="evenodd" clip-rule="evenodd" fill="#FFFFFF" d="M29.715,15.504c-5.05,5.063-9.809,9.835-14.567,14.609
	c-0.573,0.575-1.127,1.195-1.961,1.36c-1.249,0.248-2.321-0.069-3.079-1.157c-0.696-0.997-0.648-2.391,0.124-3.389
	c0.246-0.318,0.541-0.601,0.826-0.886C17.35,19.745,23.644,13.45,29.939,7.158c1.998-1.998,3.371-2.001,5.369-0.004
	c6.297,6.291,12.589,12.588,18.884,18.88c0.573,0.574,1.192,1.132,1.353,1.968c0.239,1.25-0.065,2.348-1.177,3.065
	c-1.134,0.731-2.324,0.714-3.378-0.144c-0.798-0.649-1.499-1.423-2.229-2.152c-4.321-4.32-8.638-8.644-13.006-13.018
	c-0.39,0.483-0.216,0.991-0.216,1.444c-0.012,14.025-0.008,28.051-0.017,42.078c-0.001,0.624-0.024,1.268-0.173,1.868
	c-0.315,1.273-1.523,2.141-2.792,2.106c-1.235-0.033-2.355-0.873-2.661-2.102c-0.148-0.601-0.172-1.244-0.172-1.868
	c-0.01-13.981-0.007-27.963-0.007-41.944C29.715,16.856,29.715,16.38,29.715,15.504z"/>
</svg>
