<svg xmlns="http://www.w3.org/2000/svg" width="59.883" height="52.859" viewBox="0 0 59.883 52.859">
  <g id="Group_4072" data-name="Group 4072" transform="translate(-276 -370.013)">
    <path id="Path_1899" data-name="Path 1899" d="M276,417.143v-41.4a1.363,1.363,0,0,0,.109-.261,6.614,6.614,0,0,1,6.514-5.456q23.33-.018,46.658,0a6.6,6.6,0,0,1,6.6,6.636q.011,19.791,0,39.583a6.594,6.594,0,0,1-6.606,6.62q-23.33.018-46.658,0a6.606,6.606,0,0,1-6.243-4.446C276.224,418,276.123,417.569,276,417.143Zm1.984-31.231v.507q0,14.791.008,29.584a5.419,5.419,0,0,0,.193,1.439,4.649,4.649,0,0,0,4.824,3.445q22.918,0,45.838-.006a6.072,6.072,0,0,0,1.558-.183,4.618,4.618,0,0,0,3.492-4.727q.008-14.763,0-29.526c0-.169-.019-.339-.031-.533Zm55.881-2.063c.015-.146.032-.239.032-.333,0-2.281.01-4.561-.008-6.841a4.779,4.779,0,0,0-5.057-4.669q-22.891,0-45.783.006a6.039,6.039,0,0,0-1.558.182,4.6,4.6,0,0,0-3.5,4.6c-.019,2.2-.005,4.4,0,6.608a4.091,4.091,0,0,0,.05.448Z" fill="#fff"/>
    <path id="Path_1900" data-name="Path 1900" d="M308.624,392.912c-.272,1.3-.569,2.723-.869,4.149q-1.5,7.1-2.992,14.2c-.032.152-.065.3-.108.454a1.028,1.028,0,0,1-1.155.832,1.05,1.05,0,0,1-.784-1.3c.252-1.218.517-2.433.774-3.649q1.576-7.47,3.154-14.939c.144-.68.485-1.006,1.016-1.007C308.268,391.652,308.654,392.1,308.624,392.912Z" fill="#fff"/>
    <path id="Path_1901" data-name="Path 1901" d="M294.781,402.036l4.072,3.469c.445.379.9.747,1.331,1.142a1.013,1.013,0,0,1,.205,1.451.986.986,0,0,1-1.5.052q-3.105-2.62-6.188-5.266a1,1,0,0,1-.006-1.7q3.076-2.654,6.183-5.272a1.013,1.013,0,0,1,1.506.04,1.025,1.025,0,0,1-.237,1.493c-1.611,1.384-3.233,2.756-4.85,4.133C295.137,401.717,294.982,401.858,294.781,402.036Z" fill="#fff"/>
    <path id="Path_1902" data-name="Path 1902" d="M317.094,402.017l-3.62-3.089c-.563-.48-1.132-.954-1.692-1.439a1.048,1.048,0,0,1-.284-1.532,1.032,1.032,0,0,1,1.552-.008q3.056,2.588,6.093,5.2a1.024,1.024,0,0,1,0,1.775q-3.06,2.628-6.144,5.227a.986.986,0,0,1-1.5-.048,1,1,0,0,1,.2-1.45c1.636-1.415,3.288-2.81,4.934-4.214C316.778,402.312,316.915,402.18,317.094,402.017Z" fill="#fff"/>
    <path id="Path_1903" data-name="Path 1903" d="M286.406,377.973a3.133,3.133,0,0,1-6.266.026,3.133,3.133,0,1,1,6.266-.026Zm-3.112-1.122a1.094,1.094,0,0,0-1.124,1.092,1.129,1.129,0,0,0,1.123,1.168,1.2,1.2,0,0,0,1.124-1.138A1.152,1.152,0,0,0,283.294,376.851Z" fill="#fff"/>
    <path id="Path_1904" data-name="Path 1904" d="M292.9,381.122a3.126,3.126,0,1,1,3.108-3.116A3.1,3.1,0,0,1,292.9,381.122Zm-1.127-3.127a1.122,1.122,0,0,0,1.093,1.138,1.154,1.154,0,0,0,1.149-1.15,1.114,1.114,0,0,0-1.132-1.1A1.1,1.1,0,0,0,291.776,377.995Z" fill="#fff"/>
    <path id="Path_1905" data-name="Path 1905" d="M302.538,374.914a3.122,3.122,0,1,1-3.15,3.069A3.117,3.117,0,0,1,302.538,374.914Zm1.082,3.145a1.123,1.123,0,0,0-1.074-1.154,1.159,1.159,0,0,0-1.17,1.129,1.123,1.123,0,0,0,1.116,1.114A1.1,1.1,0,0,0,303.62,378.059Z" fill="#fff"/>
  </g>
</svg>
