<svg xmlns="http://www.w3.org/2000/svg" width="69.876" height="60" viewBox="0 0 69.876 60">
  <g id="Group_4074" data-name="Group 4074" transform="translate(431.567 126.614)">
    <path id="Path_1906" data-name="Path 1906" d="M-397.225-126.614h30.116c2.758,0,4.205,1.446,4.205,4.2q0,14.675-.009,29.349a4.119,4.119,0,0,0,.477,2.2c.23.392.349.848.546,1.262a1.451,1.451,0,0,1-.336,1.874,2.114,2.114,0,0,0-.687,1.831c.052,1.531.041,3.065,0,4.6a1.72,1.72,0,0,0,.566,1.491,1.684,1.684,0,0,1,.438,2.13,18.955,18.955,0,0,1-2.974,5.059,1.391,1.391,0,0,1-1.673.578,3.157,3.157,0,0,0-3.478.671,17.162,17.162,0,0,1-2.4,1.322,1.83,1.83,0,0,0-.743.831c-.829,2.2-.253,2.372-3.191,2.574a36.189,36.189,0,0,1-4.876-.207,1.162,1.162,0,0,1-1.095-1.028,3.276,3.276,0,0,0-2.4-2.786,7.791,7.791,0,0,1-2.126-1.34,1.291,1.291,0,0,0-1.4-.269,2.544,2.544,0,0,1-3.642-1.414c-.6-1.246-1.5-1.462-2.8-1.455-10.881.057-21.763.033-32.644.032-2.767,0-4.219-1.44-4.219-4.184q0-21.572,0-43.143c0-2.715,1.451-4.175,4.15-4.175Zm-31.864,9.81c-.011.245-.024.4-.024.545q0,18.582,0,37.164c0,1.118.439,1.524,1.612,1.524q16.36,0,32.72,0c.239,0,.477-.026.817-.045a1.644,1.644,0,0,1,.433-2.311,4.846,4.846,0,0,0,.762-.857,1.572,1.572,0,0,0,.239-.819,16.566,16.566,0,0,1-.079-2.9,3.152,3.152,0,0,0-1.175-3.27,1.313,1.313,0,0,1-.323-1.735c.745-1.446,1.527-2.874,2.293-4.309a2.5,2.5,0,0,1,3.5-1.309,1.413,1.413,0,0,0,1.533-.292,7.241,7.241,0,0,1,2.131-1.33,3.351,3.351,0,0,0,2.365-2.741,1.6,1.6,0,0,1,1.068-1.01,24.752,24.752,0,0,1,4.718-.254c3.1.219,2.52.316,3.362,2.658a1.722,1.722,0,0,0,.721.762q1.69,1.038,3.432,1.99a2.028,2.028,0,0,0,1.093.266c.842-.085,1.673-.279,2.494-.427v-21.3h-.98q-15.594,0-31.188,0a3.726,3.726,0,0,1-3.941-2.849c-.38-1.136-.76-2.273-1.124-3.414a1.432,1.432,0,0,0-1.536-1.1q-4.712.025-9.425,0a1.425,1.425,0,0,0-1.519,1.119c-.354,1.118-.739,2.227-1.111,3.339a3.755,3.755,0,0,1-4.059,2.9C-423.191-116.8-426.1-116.8-429.089-116.8Zm51.1,47.819c.128,0,.255,0,.383,0,1.77-.031,1.788-.026,2.318-1.74a1.906,1.906,0,0,1,1.34-1.415,10.83,10.83,0,0,0,4.065-2.379,1.666,1.666,0,0,1,1.551-.409c2.05.392,2.051.389,3.094-1.421.089-.155.166-.316.249-.474.755-1.43.763-1.437-.333-2.633a1.859,1.859,0,0,1-.66-1.765,13.287,13.287,0,0,0,.039-4.946,2.088,2.088,0,0,1,.4-1.447c1.316-1.661,1.346-1.638.25-3.48-.078-.132-.16-.261-.242-.391-.874-1.392-.882-1.422-2.455-1.029a2.371,2.371,0,0,1-2.111-.475,33.589,33.589,0,0,0-3.958-2.265,1.99,1.99,0,0,1-1.163-1.2c-.635-1.942-.653-1.937-2.723-1.94-.2,0-.409.006-.613.014-1.578.062-1.624.049-2.05,1.582a2.452,2.452,0,0,1-1.587,1.664,25.07,25.07,0,0,0-3.731,2.2,2.183,2.183,0,0,1-1.833.467c-1.815-.39-1.818-.379-2.791,1.193q-.141.228-.27.463c-.909,1.66-.917,1.667.362,3.083a2.048,2.048,0,0,1,.5,1.667,41.577,41.577,0,0,0,.006,4.792,1.956,1.956,0,0,1-.429,1.543c-1.373,1.576-1.367,1.581-.3,3.4.077.132.158.262.239.392.9,1.44.909,1.468,2.57,1.063a2.243,2.243,0,0,1,1.972.45,31.719,31.719,0,0,0,3.881,2.247,2.228,2.228,0,0,1,1.352,1.413c.529,1.753.553,1.746,2.371,1.775C-378.2-68.982-378.094-68.984-377.992-68.984Zm-22.442-55.177c.423,1.273.814,2.454,1.208,3.634.361,1.082.623,1.27,1.778,1.27h32.032a1.662,1.662,0,0,0,.06-.25q.006-1.455.008-2.91c0-1.389-.364-1.744-1.781-1.744h-33.3Zm-28.673,4.9c3.146,0,6.178.026,9.209-.032a1.5,1.5,0,0,0,1.133-.71c.552-1.328.958-2.717,1.441-4.152-3.6,0-7.087-.011-10.577.009A1.118,1.118,0,0,0-429.094-123C-429.14-121.784-429.107-120.565-429.107-119.264Z" transform="translate(0 0)" fill="#fff"/>
    <path id="Path_1907" data-name="Path 1907" d="M-347.014-34.7c-.614-1.437.3-2.055,1.3-2.566.79-.4,1.629-.715,2.453-1.048a1.4,1.4,0,0,1,1.776.463,1.338,1.338,0,0,0,1.374.6,1.963,1.963,0,0,1,.761.045,2.256,2.256,0,0,0,2.242-.507,1.283,1.283,0,0,1,1.194-.081c1.152.687,2.252,1.466,3.331,2.265a1.147,1.147,0,0,1,.354,1.453,1.593,1.593,0,0,0,.22,1.771,1.218,1.218,0,0,1,.21.406,2.44,2.44,0,0,0,1.621,1.828,1.381,1.381,0,0,1,.67,1.078,37.639,37.639,0,0,1-.264,3.794,1.276,1.276,0,0,1-1.21,1.187,1.422,1.422,0,0,0-1.261.937,2.286,2.286,0,0,1-.463.7,2.136,2.136,0,0,0-.636,1.985,1.452,1.452,0,0,1-.546,1.213,31.209,31.209,0,0,1-3.486,1.7,1.257,1.257,0,0,1-1.576-.442,1.483,1.483,0,0,0-1.511-.649,2.086,2.086,0,0,1-.835-.074,2.126,2.126,0,0,0-2.025.475,1.478,1.478,0,0,1-1.329.1,35.9,35.9,0,0,1-3.209-2.176,1.243,1.243,0,0,1-.387-1.587,1.475,1.475,0,0,0-.2-1.626,1.838,1.838,0,0,1-.307-.613,2.225,2.225,0,0,0-1.492-1.653,1.441,1.441,0,0,1-.72-.969,7.831,7.831,0,0,1,.369-4.218,1.835,1.835,0,0,1,1.113-.878,1.8,1.8,0,0,0,1.254-.958,12.417,12.417,0,0,1,.875-1.25A5.638,5.638,0,0,0-347.014-34.7Zm10.664-.653c-.76.97-1.744.91-2.822.621a4.65,4.65,0,0,0-1.669-.079,1.657,1.657,0,0,1-1.689-.644c-.432-.612-.87-.286-1.331-.081-.479.213-.952.4-.759,1.094a1.664,1.664,0,0,1-.494,1.6,13.442,13.442,0,0,0-1.427,2.062,1.688,1.688,0,0,1-1.32,1.029c-.673.062-.739.5-.763,1.01-.026.544-.194,1.133.6,1.332.631.157.893.652,1.1,1.25a11.917,11.917,0,0,0,1.039,2.2,1.661,1.661,0,0,1,.267,1.65c-.337.708.15.948.583,1.27.459.342.874.589,1.389.057a1.519,1.519,0,0,1,1.487-.339,14.65,14.65,0,0,0,2.577.221,1.7,1.7,0,0,1,1.548.644c.351.506.729.433,1.176.183.464-.26,1.129-.335.931-1.145a1.807,1.807,0,0,1,.582-1.718,10.327,10.327,0,0,0,1.33-1.944,1.675,1.675,0,0,1,1.3-1.047.764.764,0,0,0,.77-.919c-.022-.532.331-1.2-.543-1.435a1.735,1.735,0,0,1-1.16-1.3c-.277-.784-.744-1.5-1.058-2.274a2.233,2.233,0,0,1-.253-1.348,1.053,1.053,0,0,0-.6-1.474C-335.8-35.006-336.032-35.16-336.35-35.349Z" transform="translate(-64.539 -70.718)" fill="#fff"/>
    <path id="Path_1908" data-name="Path 1908" d="M-344.166-89.44c1.711,0,3.422,0,5.133,0,.963,0,1.528.464,1.527,1.225s-.566,1.223-1.53,1.224q-5.21.006-10.419,0c-.962,0-1.527-.464-1.526-1.227s.564-1.22,1.529-1.223C-347.69-89.443-345.928-89.44-344.166-89.44Z" transform="translate(-64.638 -29.816)" fill="#fff"/>
    <path id="Path_1909" data-name="Path 1909" d="M-185.569,70.406a4.895,4.895,0,0,1,4.891-4.924,4.9,4.9,0,0,1,4.9,4.92,4.9,4.9,0,0,1-4.856,4.886A4.894,4.894,0,0,1-185.569,70.406Zm2.456-.124a2.462,2.462,0,0,0,2.314,2.552,2.467,2.467,0,0,0,2.565-2.382,2.469,2.469,0,0,0-2.357-2.514A2.459,2.459,0,0,0-183.114,70.281Z" transform="translate(-197.315 -154.081)" fill="#fff"/>
    <path id="Path_1910" data-name="Path 1910" d="M-169.459-105.589c-.1,0-.2,0-.306,0-.96-.012-1.524-.469-1.521-1.232s.565-1.21,1.531-1.22c.281,0,.562-.011.842,0a1.234,1.234,0,0,1,1.293,1.227,1.241,1.241,0,0,1-1.3,1.219C-169.1-105.582-169.28-105.59-169.459-105.589Z" transform="translate(-208.772 -14.894)" fill="#fff"/>
    <path id="Path_1911" data-name="Path 1911" d="M-144.7-105.624a4.286,4.286,0,0,1-.688-.006,1.186,1.186,0,0,1-1.093-1.181,1.192,1.192,0,0,1,1.109-1.239,9.322,9.322,0,0,1,1.224-.012,1.24,1.24,0,0,1,1.327,1.192,1.249,1.249,0,0,1-1.344,1.255c-.178.007-.357,0-.536,0Z" transform="translate(-228.663 -14.87)" fill="#fff"/>
    <path id="Path_1912" data-name="Path 1912" d="M-119.847-108.03c.153,0,.306-.005.459,0a1.249,1.249,0,0,1,1.335,1.186,1.246,1.246,0,0,1-1.336,1.262c-.331.012-.664.012-1,0a1.245,1.245,0,0,1-1.335-1.263,1.246,1.246,0,0,1,1.335-1.185C-120.2-108.036-120.026-108.03-119.847-108.03Z" transform="translate(-248.53 -14.904)" fill="#fff"/>
  </g>
</svg>
